<mxfile host="app.diagrams.net" agent="Mozilla/5.0 (Windows NT 10.0; Win64; x64) AppleWebKit/537.36 (KHTML, like Gecko) Chrome/135.0.0.0 Safari/537.36 Edg/135.0.0.0" version="26.2.14">
  <diagram name="第 1 页" id="eMDYUAMlp1hmxNzSBkpc">
    <mxGraphModel dx="884" dy="600" grid="1" gridSize="10" guides="1" tooltips="1" connect="1" arrows="1" fold="1" page="1" pageScale="1" pageWidth="4724" pageHeight="4724" math="0" shadow="0">
      <root>
        <mxCell id="0" />
        <mxCell id="1" parent="0" />
        <mxCell id="1gKnY4U4UW_hsQoaniJJ-2" value="CPU" style="ellipse;whiteSpace=wrap;html=1;" vertex="1" parent="1">
          <mxGeometry x="1220" y="100" width="120" height="80" as="geometry" />
        </mxCell>
        <mxCell id="1gKnY4U4UW_hsQoaniJJ-3" value="I/O" style="whiteSpace=wrap;html=1;aspect=fixed;" vertex="1" parent="1">
          <mxGeometry x="3600" y="3360" width="80" height="80" as="geometry" />
        </mxCell>
        <mxCell id="1gKnY4U4UW_hsQoaniJJ-4" value="进程 &amp;amp; 线程" style="rounded=0;whiteSpace=wrap;html=1;" vertex="1" parent="1">
          <mxGeometry x="510" y="590" width="120" height="60" as="geometry" />
        </mxCell>
        <mxCell id="1gKnY4U4UW_hsQoaniJJ-5" value="内存" style="rounded=0;whiteSpace=wrap;html=1;" vertex="1" parent="1">
          <mxGeometry x="2200" y="1650" width="120" height="60" as="geometry" />
        </mxCell>
        <mxCell id="1gKnY4U4UW_hsQoaniJJ-6" value="文件" style="rounded=0;whiteSpace=wrap;html=1;" vertex="1" parent="1">
          <mxGeometry x="710" y="2700" width="120" height="60" as="geometry" />
        </mxCell>
        <mxCell id="1gKnY4U4UW_hsQoaniJJ-9" value="进程与线程" style="text;whiteSpace=wrap;html=1;" vertex="1" parent="1">
          <mxGeometry x="250" y="490" width="90" height="40" as="geometry" />
        </mxCell>
        <mxCell id="1gKnY4U4UW_hsQoaniJJ-10" value="CPU调度" style="text;whiteSpace=wrap;html=1;" vertex="1" parent="1">
          <mxGeometry x="780" y="520" width="80" height="40" as="geometry" />
        </mxCell>
        <mxCell id="1gKnY4U4UW_hsQoaniJJ-11" value="同步与互斤" style="text;whiteSpace=wrap;html=1;" vertex="1" parent="1">
          <mxGeometry x="800" y="660" width="90" height="40" as="geometry" />
        </mxCell>
        <mxCell id="1gKnY4U4UW_hsQoaniJJ-12" value="死锁" style="text;whiteSpace=wrap;html=1;" vertex="1" parent="1">
          <mxGeometry x="620" y="770" width="60" height="40" as="geometry" />
        </mxCell>
        <mxCell id="1gKnY4U4UW_hsQoaniJJ-13" value="内存管理" style="text;whiteSpace=wrap;html=1;" vertex="1" parent="1">
          <mxGeometry x="1960" y="1660" width="80" height="40" as="geometry" />
        </mxCell>
        <mxCell id="1gKnY4U4UW_hsQoaniJJ-14" value="虚拟内存" style="text;whiteSpace=wrap;html=1;" vertex="1" parent="1">
          <mxGeometry x="2460" y="1650" width="80" height="40" as="geometry" />
        </mxCell>
        <mxCell id="1gKnY4U4UW_hsQoaniJJ-15" value="文件系统基础" style="text;whiteSpace=wrap;html=1;" vertex="1" parent="1">
          <mxGeometry x="360" y="2700" width="110" height="40" as="geometry" />
        </mxCell>
        <mxCell id="1gKnY4U4UW_hsQoaniJJ-16" value="目录" style="text;whiteSpace=wrap;html=1;" vertex="1" parent="1">
          <mxGeometry x="1020" y="2680" width="60" height="40" as="geometry" />
        </mxCell>
        <mxCell id="1gKnY4U4UW_hsQoaniJJ-17" value="文件系统" style="text;whiteSpace=wrap;html=1;" vertex="1" parent="1">
          <mxGeometry x="1030" y="2820" width="80" height="40" as="geometry" />
        </mxCell>
        <mxCell id="1gKnY4U4UW_hsQoaniJJ-18" value="IO管理概述" style="text;whiteSpace=wrap;html=1;" vertex="1" parent="1">
          <mxGeometry x="3410" y="3380" width="90" height="40" as="geometry" />
        </mxCell>
        <mxCell id="1gKnY4U4UW_hsQoaniJJ-19" value="设备独立性软件" style="text;whiteSpace=wrap;html=1;" vertex="1" parent="1">
          <mxGeometry x="3810" y="3360" width="120" height="40" as="geometry" />
        </mxCell>
        <mxCell id="1gKnY4U4UW_hsQoaniJJ-20" value="磁盘和 固态硬盘" style="text;whiteSpace=wrap;html=1;" vertex="1" parent="1">
          <mxGeometry x="3750" y="3500" width="120" height="40" as="geometry" />
        </mxCell>
      </root>
    </mxGraphModel>
  </diagram>
</mxfile>
